<?xml version="1.0" encoding="UTF-8"?>
<svg width="24px" height="24px" viewBox="0 0 24 24" version="1.1" xmlns="http://www.w3.org/2000/svg" xmlns:xlink="http://www.w3.org/1999/xlink">
    <!-- Generator: Sketch 58 (84663) - https://sketch.com -->
    <title>ic/ic_playlist</title>
    <desc>Created with Sketch.</desc>
    <g id="ic/ic_playlist" stroke="none" stroke-width="1" fill="none" fill-rule="evenodd">
        <path d="M15.5,4 C15.776,4 16,4.224 16,4.5 C16,5.82288 17.0340352,6.9098304 18.3359242,6.99466982 L18.5,7 C20.43,7 22,8.57 22,10.5 C22,10.776 21.776,11 21.5,11 C21.224,11 21,10.776 21,10.5 C21,9.17712 19.9659648,8.0901696 18.6640758,8.00533018 L18.5,8 C17.5972308,8 16.7728521,7.65576331 16.1511352,7.09234775 L16,6.947 L16,18.5 C16,19.233 15.486,19.894 14.552,20.361 C13.728,20.773 12.645,21 11.5,21 C10.355,21 9.272,20.773 8.448,20.361 C7.514,19.895 7,19.233 7,18.5 C7,17.767 7.514,17.106 8.448,16.639 C9.272,16.227 10.355,16 11.5,16 C12.645,16 13.728,16.227 14.552,16.639 C14.66,16.693 14.7626667,16.7496667 14.8594074,16.8087037 L15,16.899 L15,4.5 C15,4.224 15.224,4 15.5,4 Z M11.5,17 C9.497,17 8,17.792 8,18.5 C8,19.208 9.497,20 11.5,20 C13.503,20 15,19.208 15,18.5 C15,17.792 13.503,17 11.5,17 Z M12.5,13 C12.776,13 13,13.224 13,13.5 C13,13.776 12.776,14 12.5,14 L2.5,14 C2.224,14 2,13.776 2,13.5 C2,13.224 2.224,13 2.5,13 L12.5,13 Z M12.5,10 C12.776,10 13,10.224 13,10.5 C13,10.776 12.776,11 12.5,11 L2.5,11 C2.224,11 2,10.776 2,10.5 C2,10.224 2.224,10 2.5,10 L12.5,10 Z M12.5,7 C12.776,7 13,7.224 13,7.5 C13,7.776 12.776,8 12.5,8 L2.5,8 C2.224,8 2,7.776 2,7.5 C2,7.224 2.224,7 2.5,7 L12.5,7 Z M12.5,4 C12.776,4 13,4.224 13,4.5 C13,4.776 12.776,5 12.5,5 L2.5,5 C2.224,5 2,4.776 2,4.5 C2,4.224 2.224,4 2.5,4 L12.5,4 Z" id="Shape" fill="#FFFFFF"></path>
    </g>
</svg>